:SAMPLES-PER-SECOND 30
:FULLY-SPECIFIED
:DEGREES
94
root  -35.9116 39.7235 -24.5393 2.63781 -10.7987 -2.68911
RightUpLeg  13.0385 -10.6623 -8.71201
RightLeg  6.43426 -13.6675 4.24203
RightFoot  -12.9043 0.105056 14.0048
RightToes  -1.74624e-010 0 -3.6325e-017
Spine  3.86562 1.06235 5.54731
Spine1  8.89202 1.98121 -3.33321
HEad  -3.7047 3.23352 -5.98403
LeftShoulder1  8.33542 -11.9883 -46.9432
LeftArm  -3.87331 18.9968 -21.074
LeftForeArm  20.6614 -17.3148 -4.65278
LeftHand  -0.244104 0.0205437 5.32207
RightShoulder  6.2777 9.86171 40.7856
RightArm  0.934238 -3.83504 26.9318
RightForeArm  -5.65389 39.9708 9.73022
RightHand  -0.881081 0.680498 -16.8746
LeftUpLeg  -30.4653 12.3067 -7.50872
LeftLeg  15.7405 3.78274 0.668194
LeftFoot  -1.4628 -0.238618 2.8649
LeftToes  1.71891e-010 -1.5102e-010 2.10556e-011
95
root  -36.4825 39.4302 -23.2401 2.58909 -9.82287 -2.24984
RightUpLeg  15.8139 -10.5602 -8.95304
RightLeg  5.92708 -13.7507 4.25758
RightFoot  -13.9567 0.254225 15.2518
RightToes  -1.74624e-010 0 -3.6325e-017
Spine  4.28155 1.4524 5.84204
Spine1  8.87118 2.76383 -4.69653
HEad  -4.5824 3.8573 -5.68778
LeftShoulder1  8.2345 -11.8894 -46.666
LeftArm  -5.66732 20.9007 -19.6015
LeftForeArm  20.2476 -16.2759 -4.67496
LeftHand  -0.244104 0.0205437 5.32207
RightShoulder  6.37289 10.0249 40.915
RightArm  -0.0220107 -2.53963 26.945
RightForeArm  -3.44628 40.1812 9.67148
RightHand  -0.76895 0.567412 -15.0582
LeftUpLeg  -29.7201 7.02308 -4.27655
LeftLeg  9.25674 10.5024 -1.68194
LeftFoot  -1.25855 -0.263511 3.07354
LeftToes  1.71891e-010 -1.5102e-010 2.10556e-011
96
root  -36.9529 39.0798 -21.7484 2.31069 -9.02393 -1.83014
RightUpLeg  18.4962 -10.8412 -9.82601
RightLeg  6.8075 -13.2153 4.06226
RightFoot  -14.4189 0.341574 16.2515
RightToes  -1.74624e-010 0 -3.6325e-017
Spine  4.47426 1.77113 6.13763
Spine1  9.09186 3.46098 -5.88986
HEad  -5.36115 4.13244 -5.49514
LeftShoulder1  8.17133 -11.8995 -46.2669
LeftArm  -7.83533 23.0263 -18.9433
LeftForeArm  19.7842 -14.7031 -4.64164
LeftHand  -0.244104 0.0205437 5.32207
RightShoulder  6.41817 10.1468 40.831
RightArm  -0.204584 -1.80355 27.2532
RightForeArm  -2.14682 39.4913 9.36431
RightHand  -0.782249 0.792031 -14.7563
LeftUpLeg  -30.1334 5.9076 -4.10569
LeftLeg  8.85286 11.4652 -1.92296
LeftFoot  -1.21056 -0.241446 2.8182
LeftToes  1.71891e-010 -1.5102e-010 2.10556e-011
97
root  -37.3284 38.7221 -20.0611 1.99416 -8.70214 -1.04648
RightUpLeg  21.071 -12.0561 -12.0532
RightLeg  8.43537 -10.2808 3.64625
RightFoot  -14.2182 0.384967 18.9866
RightToes  -1.74624e-010 0 -3.6325e-017
Spine  4.12804 2.24639 5.78863
Spine1  9.50672 4.25227 -6.85369
HEad  -5.67696 3.98449 -5.07119
LeftShoulder1  8.09008 -11.8467 -45.955
LeftArm  -9.40957 25.4651 -18.7761
LeftForeArm  18.8979 -12.9776 -4.53838
LeftHand  -0.244104 0.0205437 5.32207
RightShoulder  6.45182 10.2023 40.8825
RightArm  0.234997 -2.10741 27.6059
RightForeArm  -2.42417 38.103 8.93672
RightHand  -0.906354 1.31564 -15.772
LeftUpLeg  -31.2335 9.2393 -7.52278
LeftLeg  13.1553 7.07885 0.1369
LeftFoot  0.203537 -0.388082 3.76957
LeftToes  1.71891e-010 -1.5102e-010 2.10556e-011
98
root  -37.6395 38.4102 -18.231 1.45519 -8.53837 0.0755391
RightUpLeg  23.4644 -15.3056 -15.8692
RightLeg  11.2542 -4.25938 2.51474
RightFoot  -12.7736 0.201494 24.2249
RightToes  -1.74624e-010 0 -3.6325e-017
Spine  3.66008 2.77142 4.39239
Spine1  9.72127 4.82902 -7.15772
HEad  -5.56835 3.55776 -4.18599
LeftShoulder1  7.99927 -11.6729 -45.9591
LeftArm  -10.1629 28.0269 -18.7438
LeftForeArm  17.8541 -11.0015 -4.41482
LeftHand  -0.244104 0.0205437 5.32207
RightShoulder  6.52171 10.2019 41.3631
RightArm  1.1301 -3.43031 28.0098
RightForeArm  -3.14964 35.6553 8.24169
RightHand  -1.03165 1.86306 -16.615
LeftUpLeg  -31.7565 11.4021 -10.5424
LeftLeg  18.678 4.46253 2.17482
LeftFoot  2.128 -0.792086 6.59928
LeftToes  1.71891e-010 -1.5102e-010 2.10556e-011
99
root  -37.903 38.2633 -16.3477 0.586063 -7.87486 1.23977
RightUpLeg  23.8554 -17.8319 -18.9799
RightLeg  17.5119 -0.632857 -0.0683253
RightFoot  -7.70811 -0.940187 27.6424
RightToes  -1.74624e-010 0 -3.6325e-017
Spine  3.56542 3.0071 2.26777
Spine1  9.50492 4.82983 -6.58439
HEad  -5.28605 2.89924 -3.15622
LeftShoulder1  7.95696 -11.5368 -46.1336
LeftArm  -10.3175 30.2379 -19.1212
LeftForeArm  16.8778 -8.55216 -4.24288
LeftHand  -0.244104 0.0205437 5.32207
RightShoulder  6.61244 10.17 42.0872
RightArm  2.46093 -5.40341 28.7395
RightForeArm  -4.2107 31.9293 7.26635
RightHand  -1.08695 2.18744 -16.7593
LeftUpLeg  -30.7162 9.94037 -11.0467
LeftLeg  23.7643 6.03938 3.2392
LeftFoot  1.84001 -1.07737 9.24179
LeftToes  1.71891e-010 -1.5102e-010 2.10556e-011
100
root  -38.1261 38.3269 -14.5167 -0.320141 -6.84685 2.31039
RightUpLeg  19.7452 -12.9776 -17.747
RightLeg  28.2262 -4.87624 -3.16242
RightFoot  2.16632 -2.82988 24.2959
RightToes  -1.74624e-010 0 -3.6325e-017
Spine  3.69427 2.94017 -0.00954782
Spine1  9.09965 4.40894 -5.47332
HEad  -5.28884 2.71191 -2.52108
LeftShoulder1  7.98765 -11.5606 -46.2415
LeftArm  -10.1121 31.7015 -20.334
LeftForeArm  16.1947 -6.0695 -4.07671
LeftHand  -0.244104 0.0205437 5.32207
RightShoulder  6.69636 10.1505 42.7222
RightArm  4.49271 -7.58192 29.8953
RightForeArm  -6.80967 27.4641 6.251
RightHand  -1.11974 2.3418 -16.9185
LeftUpLeg  -28.526 8.87402 -11.7031
LeftLeg  27.319 6.64995 4.05506
LeftFoot  -1.16608 -0.901499 10.1479
LeftToes  1.71891e-010 -1.5102e-010 2.10556e-011
101
root  -38.3395 38.4632 -12.8725 -0.93519 -6.22481 3.52771
RightUpLeg  12.5259 -7.38544 -16.0472
RightLeg  41.0725 -4.62336 -4.40516
RightFoot  12.0598 -3.36317 16.4379
RightToes  -1.74624e-010 0 -3.6325e-017
Spine  3.76587 2.85574 -2.54067
Spine1  9.03209 3.9069 -4.40431
HEad  -5.54823 2.91911 -2.38127
LeftShoulder1  8.05083 -11.6412 -46.3631
LeftArm  -10.0575 32.3098 -22.1521
LeftForeArm  16.6217 -4.5357 -4.08188
LeftHand  -0.244104 0.0205437 5.32207
RightShoulder  6.77978 10.1743 43.2074
RightArm  7.02238 -9.57228 31.2524
RightForeArm  -9.66743 23.184 5.59504
RightHand  -1.17783 2.51252 -17.4065
LeftUpLeg  -25.8011 8.09785 -12.4713
LeftLeg  29.0861 7.00559 4.54839
LeftFoot  -4.83992 -0.534429 9.87886
LeftToes  1.71891e-010 -1.5102e-010 2.10556e-011
102
root  -38.5399 38.6645 -11.3479 -1.34709 -6.0214 4.47989
RightUpLeg  4.51437 -2.95638 -14.7408
RightLeg  52.3938 -0.571259 -1.14199
RightFoot  15.5209 -2.56528 11.059
RightToes  -1.74624e-010 0 -3.6325e-017
Spine  3.81666 2.67253 -4.60321
Spine1  9.17927 3.31041 -3.55386
HEad  -6.1291 3.57747 -2.60887
LeftShoulder1  8.12071 -11.6604 -46.7155
LeftArm  -10.1468 32.0725 -23.9066
LeftForeArm  18.3314 -4.53616 -4.22093
LeftHand  -0.244104 0.0205437 5.32207
RightShoulder  6.86667 10.224 43.6254
RightArm  8.06022 -11.3065 32.4779
RightForeArm  -8.35503 19.6781 5.95775
RightHand  -1.19945 2.57037 -17.5937
LeftUpLeg  -22.6407 7.79356 -12.9628
LeftLeg  29.1877 7.30283 4.74786
LeftFoot  -7.55597 -0.261522 9.27957
LeftToes  1.71891e-010 -1.5102e-010 2.10556e-011
103
root  -38.6874 39.0427 -9.82238 -1.75462 -5.5179 4.59348
RightUpLeg  -2.74379 -0.563464 -13.4864
RightLeg  60.1086 1.49899 2.21138
RightFoot  13.3086 -1.9593 9.39499
RightToes  -1.74624e-010 0 -3.6325e-017
Spine  4.10959 2.11059 -5.16961
Spine1  9.088 2.53416 -2.92952
HEad  -6.91303 4.2964 -2.98273
LeftShoulder1  8.22305 -11.6901 -47.2226
LeftArm  -10.2892 30.9518 -25.287
LeftForeArm  20.7322 -5.69393 -4.43718
LeftHand  -0.244104 0.0205437 5.32207
RightShoulder  6.93542 10.269 43.9341
RightArm  7.78634 -13.1898 33.4648
RightForeArm  -3.96147 17.4429 6.66356
RightHand  -1.13144 2.28054 -17.2211
LeftUpLeg  -18.5192 7.56309 -12.6528
LeftLeg  27.4388 7.44316 4.52852
LeftFoot  -9.12728 -0.110601 8.55698
LeftToes  1.71891e-010 -1.5102e-010 2.10556e-011
104
root  -38.8007 39.4615 -8.33932 -2.11715 -4.61352 4.11048
RightUpLeg  -9.16599 -0.185156 -12.3359
RightLeg  63.4158 0.732724 1.00572
RightFoot  9.79139 -1.78772 9.92686
RightToes  -1.74624e-010 0 -3.6325e-017
Spine  4.66077 1.4154 -4.62601
Spine1  8.83299 1.73245 -2.61084
HEad  -7.65216 4.76477 -3.33684
LeftShoulder1  8.35003 -11.8142 -47.5703
LeftArm  -10.3803 28.9641 -26.5496
LeftForeArm  22.7647 -7.31197 -4.7409
LeftHand  -0.244104 0.0205437 5.32207
RightShoulder  6.96018 10.2994 43.9969
RightArm  8.02544 -15.6007 34.2329
RightForeArm  -1.9958 16.774 6.89651
RightHand  -1.04356 1.82558 -16.8822
LeftUpLeg  -14.0761 7.25714 -11.7837
LeftLeg  24.908 7.20395 3.9987
LeftFoot  -10.3151 -0.00812853 7.86037
LeftToes  1.71891e-010 -1.5102e-010 2.10556e-011
105
root  -38.9019 39.8329 -6.87562 -2.44602 -3.56735 3.3429
RightUpLeg  -14.7869 -0.950372 -10.9967
RightLeg  62.7881 -1.3002 -3.25624
RightFoot  7.30195 -1.49963 9.39889
RightToes  -1.74624e-010 0 -3.6325e-017
Spine  5.23608 0.775293 -3.58295
Spine1  8.56093 1.01766 -2.34338
HEad  -8.23532 5.04219 -3.59382
LeftShoulder1  8.45338 -11.9669 -47.6867
LeftArm  -10.2237 26.33 -27.8495
LeftForeArm  23.7702 -9.17855 -5.09224
LeftHand  -0.244104 0.0205437 5.32207
RightShoulder  6.92859 10.3049 43.7681
RightArm  8.60942 -18.3067 34.7279
RightForeArm  -3.30292 17.1796 6.82889
RightHand  -1.01402 1.58576 -16.9547
LeftUpLeg  -9.49785 7.13194 -10.5506
LeftLeg  21.9701 6.49823 3.1493
LeftFoot  -11.3127 0.0666073 7.51864
LeftToes  1.71891e-010 -1.5102e-010 2.10556e-011
106
root  -38.9784 40.1611 -5.41022 -2.87618 -2.47544 2.31389
RightUpLeg  -19.1513 -2.22015 -9.29982
RightLeg  58.3996 -3.38656 -6.37887
RightFoot  5.3356 -1.07523 7.58476
RightToes  -1.74624e-010 0 -3.6325e-017
Spine  5.98777 0.120079 -2.18306
Spine1  8.15471 0.293114 -1.82252
HEad  -8.78487 5.30768 -3.78747
LeftShoulder1  8.54406 -12.0849 -47.8359
LeftArm  -9.24454 23.3758 -28.8977
LeftForeArm  23.6391 -11.5536 -5.28114
LeftHand  -0.244104 0.0205437 5.32207
RightShoulder  6.84999 10.2742 43.3461
RightArm  9.24669 -20.6832 34.8914
RightForeArm  -4.82241 17.8329 6.65258
RightHand  -1.03477 1.64729 -17.1486
LeftUpLeg  -4.6606 6.47784 -8.80958
LeftLeg  18.6436 6.20601 1.98564
LeftFoot  -12.0369 0.116884 7.32427
LeftToes  1.71891e-010 -1.5102e-010 2.10556e-011
107
root  -39.0679 40.3017 -3.96811 -3.38368 -1.31753 1.52975
RightUpLeg  -21.7797 -3.92994 -7.95725
RightLeg  50.021 -4.93792 -6.64583
RightFoot  3.33063 -0.987785 7.8646
RightToes  -1.74624e-010 0 -3.6325e-017
Spine  6.99504 -0.512573 -1.35175
Spine1  7.57258 -0.506201 -1.18843
HEad  -9.42171 5.6125 -4.0074
LeftShoulder1  8.66905 -12.2151 -48.1381
LeftArm  -7.07376 20.3282 -29.4644
LeftForeArm  22.7335 -14.6251 -5.09097
LeftHand  -0.244104 0.0205437 5.32207
RightShoulder  6.76837 10.2397 42.9128
RightArm  10.0721 -22.339 34.5844
RightForeArm  -4.95557 18.1961 6.53152
RightHand  -1.06297 1.77685 -17.2988
LeftUpLeg  -0.506482 5.17712 -7.28364
LeftLeg  16.6042 6.45914 0.934866
LeftFoot  -13.3348 0.200223 6.9236
LeftToes  1.71891e-010 -1.5102e-010 2.10556e-011
108
root  -39.2152 40.1826 -2.46756 -3.66789 -0.00740241 1.44863
RightUpLeg  -22.7711 -6.1802 -7.29691
RightLeg  37.8985 -5.3199 -4.75084
RightFoot  2.17481 -1.11283 9.48221
RightToes  -1.74624e-010 0 -3.6325e-017
Spine  7.50196 -1.058 -1.84075
Spine1  7.08933 -1.32043 -0.429786
HEad  -10.1095 5.87541 -4.24353
LeftShoulder1  8.80126 -12.3776 -48.3757
LeftArm  -4.02121 17.2745 -29.7182
LeftForeArm  21.4762 -18.2613 -4.47639
LeftHand  -0.244104 0.0205437 5.32207
RightShoulder  6.73421 10.2451 42.6647
RightArm  10.9865 -23.2768 33.6689
RightForeArm  -4.67394 18.0736 6.6135
RightHand  -1.08015 1.88172 -17.3291
LeftUpLeg  2.54013 4.57706 -6.56024
LeftLeg  16.4481 5.90211 0.234109
LeftFoot  -15.5391 0.342304 6.7515
LeftToes  1.71891e-010 -1.5102e-010 2.10556e-011
